# xmcd
#
# Track frame offsets: 
#        150
#        18195
#        34292
#        45587
#        60410
#        76037
#        90322
#        106125
#        118427
#        133202
#        145877
#        162422
#        174097
#        188917
#        205395
#        219092
#        230715
#        250267
#        262300
#        275372
#
# Disc length: 3864 seconds
#
# Revision: 0
# Processed by: cddbd v1.5.1PL0 Copyright (c) Steve Scherf et al.
# Submitted via: ExactAudioCopy v0.95b1
#
DISCID=190f1614
DTITLE=Topi Sorsakoski - 20 hittiä (Suomi huiput)
DYEAR=2003
DGENRE=Rock
TTITLE0=Haavoittuneet
TTITLE1=Olet kaikki
TTITLE2=Punatukkaiselle tytölleni
TTITLE3=Aamun toit mun maailmaan
TTITLE4=Kuunsillalla
TTITLE5=Tullessa sateen
TTITLE6=Jään iltaan hiljaiseen
TTITLE7=Keinu kanssani
TTITLE8=Cherbourgin sateenvarjot
TTITLE9=En koskaan
TTITLE10=Tie jatkuu äärettömiin
TTITLE11=Kun kuu jo nousee
TTITLE12=Hurmio
TTITLE13=Kalliovuorten kuu
TTITLE14=Pieni lintu
TTITLE15=Yölliset kirjeet
TTITLE16=Kalpea kuu
TTITLE17=Sua lemmin kuin järjetön mä oisin
TTITLE18=Kyyneleet
TTITLE19=Yksinäisyys
EXTD=
EXTT0=
EXTT1=
EXTT2=
EXTT3=
EXTT4=
EXTT5=
EXTT6=
EXTT7=
EXTT8=
EXTT9=
EXTT10=
EXTT11=
EXTT12=
EXTT13=
EXTT14=
EXTT15=
EXTT16=
EXTT17=
EXTT18=
EXTT19=
PLAYORDER=
